<svg xmlns="http://www.w3.org/2000/svg" width="768" height="63" viewBox="15.9 249 768 63"><path d="M749.3 260h10.3c6.2 0 9.6 2.8 9.6 8.4s-2.7 8.4-11.6 8.4h-8.4l.1-16.8zm0 50.1V286h9.8l11.2 24.1h12.5l-13-26.4c7.2-2 10.9-8 10.8-15.2-.1-9.8-5.5-17.5-18.9-17.5h-23.6v59.2c-.1-.1 11.2-.1 11.2-.1zm-17.7 0v-9.6h-28.8v-16.6h20.3v-9.4h-20.3v-14.1h27.9v-9.5h-39.2v59.2h40.1zm-46.3 0v-9.6h-25.7v-49.7h-11.3V310c0 .1 37 .1 37 .1zm-43.4 0v-9.6h-28.8v-16.6h20.3v-9.4h-20.3v-14.1H641v-9.5h-39.2v59.2h40.1zm-77.8-59.2h-11.8l16.3 35.6v23.6h11.3v-23.6l16.3-35.6h-11.8l-10.2 23.5-10.1-23.5zm-15 59.2v-9.6h-28.8v-16.6h20.3v-9.4h-20.3v-14.1h27.9v-9.5H509v59.2h40.1zM468.3 260h11.3c5.4 0 8.1 3.1 8.1 7.2s-2.7 7.2-8.1 7.2h-11.3V260zm0 23.7h11.3c6.6 0 9.4 3 9.4 8.6 0 5.7-2.9 8.6-9.4 8.6h-11.3v-17.2zm-11.4 26.4h21.8c15.1 0 21.6-6.4 21.6-15.6 0-9-2.6-12.5-10.3-15.7 6.5-2.5 9-7.3 9-13.4-.7-10.6-8.3-14.5-20.1-14.5h-22v59.2zm-80.2 0h5.4v-54.8h.2l31.7 54.8h5.6v-59.2h-5.5v49.4h-.2l-28.1-49.4h-9.1v59.2zm-33.6-3.6c-10.9 0-18-9.3-18-26s7.1-26 18-26 18 9.3 18 26-7.1 26-18 26m0-56.5c-14.8 0-23.4 13-23.4 30.4s8.5 30.4 23.4 30.4c14.9 0 23.4-13 23.4-30.4s-8.6-30.4-23.4-30.4m-39.3 60.1h5.4v-59.2h-5.4v59.2zm-49.1-54.8h17.5v54.8h5.4v-54.8h17.5v-4.4h-40.5v4.4h.1zm-42.4 54.8h5.7l6.1-19.4h22.4l6 19.4h5.7l-18.7-59.2h-8.3l-18.9 59.2zm13.2-23.8l9.8-31h.2l9.8 31h-19.8zm-58.3 23.8h16.7c18.4 0 25.7-13.8 25.7-29.6s-7.4-29.6-25.7-29.6h-16.7v59.2zm5.5-54.8h11.4c13.1 0 20.2 9.2 20.2 25.2s-7.1 25.2-20.2 25.2h-11.4v-50.4zm-61.8 54.8h5.4v-54.8h.2l31.6 54.8h5.6v-59.2h-5.4v49.4h-.2L120 250.9h-9.1v59.2zm-33.7-3.6c-10.9 0-18-9.3-18-26s7.1-26 18-26 18 9.3 18 26-7.1 26-18 26m0-56.5c-14.8 0-23.4 13-23.4 30.4s8.5 30.4 23.4 30.4 23.4-13 23.4-30.4S92.1 250 77.2 250m-54.9 60.1v-28.6h21.4v-4.4H22.3v-21.8h29.4v-4.4H16.9v59.2h5.4z"/></svg>